/* XPM */
static char * bottom_right_active_xpm[] = {
"6 6 5 1",
" 	c None",
".	c #FFFFFF",
"+	c #CECECE",
"@	c #9C9C9C",
"#	c #000000",
" .++@#",
"..++@#",
"++++@#",
"++++@#",
"@@@@@#",
"######"};
