/* XPM */
static char * bottom_inactive_xpm[] = {
"5 6 5 1",
" 	c None",
".	c #000000",
"+	c #FFFFFF",
"@	c #CECECE",
"#	c #9C9C9C",
".....",
"+++++",
"@@@@@",
"@@@@@",
"#####",
"....."};
