/* XPM */
static char * shade_inactive_xpm[] = {
"13 13 9 1",
" 	c #8C8C8C",
".	c #CECECE",
"+	c #212121",
"@	c #FFFFFF",
"#	c #9C9C9C",
"$	c #ADADAD",
"%	c #BDBDBD",
"&	c #DEDEDE",
"*	c #EFEFEF",
"            .",
" +++++++++++@",
" +@........+@",
" +.##$$%%. +@",
" +.#$$%%.. +@",
" +++++++++++@",
" +.$%%..&& +@",
" +++++++++++@",
" +.%..&&** +@",
" +...&&**@ +@",
" +.        +@",
" +++++++++++@",
".@@@@@@@@@@@@"};
