/* XPM */
static char * title_3_inactive_xpm[] = {
"7 22 4 1",
" 	c #000000",
".	c #FFFFFF",
"+	c #CECECE",
"@	c #9C9C9C",
"       ",
".......",
"+++++++",
"+++++++",
"+++++++",
"+++++++",
"+++++++",
"+++++++",
"+++++++",
"+++++++",
"+++++++",
"+++++++",
"+++++++",
"+++++++",
"+++++++",
"+++++++",
"+++++++",
"+++++++",
"+++++++",
"+++++++",
"@@@@@@@",
"       "};
