/* XPM */
static char * top_left_active_xpm[] = {
"21 22 5 1",
" 	c None",
".	c #000000",
"+	c #CECECE",
"@	c #FFFFFF",
"#	c #9C9C9C",
".....................",
".+@@@@@@@@@@@@@@@@@@@",
".#+++++++++++++++++++",
".#+++++++++++++++++++",
".#+++++++++++++++++++",
".#+++++++++++++++++++",
".#+++++++++++++++++++",
".#+++++++++++++++++++",
".#+++++++++++++++++++",
".#+++++++++++++++++++",
".#+++++++++++++++++++",
".#+++++++++++++++++++",
".#+++++++++++++++++++",
".#+++++++++++++++++++",
".#+++++++++++++++++++",
".#+++++++++++++++++++",
".#+++++++++++++++++++",
".#+++++++++++++++++++",
".#+++++++++++++++++++",
".#+++++++++++++++++++",
".#++++###############",
".#+++................"};
